HIERARCHY
ROOT Hips
{
	OFFSET 0.000000 0.000000 0.000000
	CHANNELS 6 Xposition Yposition Zposition Zrotation Yrotation Xrotation 
	JOINT LHipJoint
	{
		OFFSET 0.000000 0.000000 0.000000
		CHANNELS 3 Zrotation Yrotation Xrotation
		JOINT LeftUpLeg
		{
			OFFSET 1.363060 -1.794630 0.839290
			CHANNELS 3 Zrotation Yrotation Xrotation
			JOINT LeftLeg
			{
				OFFSET 2.448110 -6.726130 0.000000
				CHANNELS 3 Zrotation Yrotation Xrotation
				JOINT LeftFoot
				{
					OFFSET 2.562200 -7.039590 0.000000
					CHANNELS 3 Zrotation Yrotation Xrotation
					JOINT LeftToeBase
					{
						OFFSET 0.157640 -0.433110 2.322550
						CHANNELS 3 Zrotation Yrotation Xrotation
						End Site
						{
							OFFSET 0.000000 0.000000 0.000000
						}
					}
				}
			}
		}
	}
	JOINT RHipJoint
	{
		OFFSET 0.000000 0.000000 0.000000
		CHANNELS 3 Zrotation Yrotation Xrotation
		JOINT RightUpLeg
		{
			OFFSET -1.305520 -1.794630 0.839290
			CHANNELS 3 Zrotation Yrotation Xrotation
			JOINT RightLeg
			{
				OFFSET -2.542530 -6.985550 0.000000
				CHANNELS 3 Zrotation Yrotation Xrotation
				JOINT RightFoot
				{
					OFFSET -2.568260 -7.056230 0.000000
					CHANNELS 3 Zrotation Yrotation Xrotation
					JOINT RightToeBase
					{
						OFFSET -0.164730 -0.452590 2.363150
						CHANNELS 3 Zrotation Yrotation Xrotation
						End Site
						{
							OFFSET 0.000000 0.000000 0.000000
						}
					}
				}
			}
		}
	}
	JOINT LowerBack
	{
		OFFSET 0.000000 0.000000 0.000000
		CHANNELS 3 Zrotation Yrotation Xrotation
		JOINT Spine
		{
			OFFSET 0.028270 2.035590 -0.193380
			CHANNELS 3 Zrotation Yrotation Xrotation
			JOINT Spine1
			{
				OFFSET 0.056720 2.048850 -0.042750
				CHANNELS 3 Zrotation Yrotation Xrotation
				JOINT Neck
				{
					OFFSET 0.000000 0.000000 0.000000
					CHANNELS 3 Zrotation Yrotation Xrotation
					JOINT Neck1
					{
						OFFSET -0.054170 1.746240 0.172020
						CHANNELS 3 Zrotation Yrotation Xrotation
						JOINT Head
						{
							OFFSET 0.104070 1.761360 -0.123970
							CHANNELS 3 Zrotation Yrotation Xrotation
							End Site
							{
								OFFSET 0.000000 0.000000 0.000000
							}
						}
					}
				}
				JOINT LeftShoulder
				{
					OFFSET 0.000000 0.000000 0.000000
					CHANNELS 3 Zrotation Yrotation Xrotation
					JOINT LeftArm
					{
						OFFSET 3.362410 1.200890 -0.311210
						CHANNELS 3 Zrotation Yrotation Xrotation
						JOINT LeftForeArm
						{
							OFFSET 4.983000 -0.000000 -0.000000
							CHANNELS 3 Zrotation Yrotation Xrotation
							JOINT LeftHand
							{
								OFFSET 3.483560 -0.000000 -0.000000
								CHANNELS 3 Zrotation Yrotation Xrotation
								JOINT LeftFingerBase
								{
									OFFSET 0.000000 0.000000 0.000000
									CHANNELS 3 Zrotation Yrotation Xrotation
									JOINT LeftHandIndex1
									{
										OFFSET 0.715260 -0.000000 -0.000000
										CHANNELS 3 Zrotation Yrotation Xrotation
										End Site
										{
											OFFSET 0.000000 0.000000 0.000000
										}
									}
								}
								JOINT LThumb
								{
									OFFSET 0.000000 0.000000 0.000000
									CHANNELS 3 Zrotation Yrotation Xrotation
									End Site
									{
										OFFSET 0.000000 0.000000 0.000000
									}
								}
							}
						}
					}
				}
				JOINT RightShoulder
				{
					OFFSET 0.000000 0.000000 0.000000
					CHANNELS 3 Zrotation Yrotation Xrotation
					JOINT RightArm
					{
						OFFSET -3.136600 1.374050 -0.404650
						CHANNELS 3 Zrotation Yrotation Xrotation
						JOINT RightForeArm
						{
							OFFSET -5.241900 -0.000000 -0.000000
							CHANNELS 3 Zrotation Yrotation Xrotation
							JOINT RightHand
							{
								OFFSET -3.444170 -0.000000 -0.000000
								CHANNELS 3 Zrotation Yrotation Xrotation
								JOINT RightFingerBase
								{
									OFFSET 0.000000 0.000000 0.000000
									CHANNELS 3 Zrotation Yrotation Xrotation
									JOINT RightHandIndex1
									{
										OFFSET -0.622530 -0.000000 -0.000000
										CHANNELS 3 Zrotation Yrotation Xrotation
										End Site
										{
											OFFSET 0.000000 0.000000 0.000000
										}
									}
								}
								JOINT RThumb
								{
									OFFSET 0.000000 0.000000 0.000000
									CHANNELS 3 Zrotation Yrotation Xrotation
									End Site
									{
										OFFSET 0.000000 0.000000 0.000000
									}
								}
							}
						}
					}
				}
			}
		}
	}
}
MOTION
Frames: 4
Frame Time: 0.008333
0.516043 16.386370 -0.475154 -132.030864 79.698301 -105.896346 -13.669897 1.137173 -2.697889 -6.164285 0.713797 -9.698923 -0.235211 1.878813 36.508082 0.798919 3.751253 -0.023736 0.379300 0.000000 -61.126000 5.580007 -0.653647 1.011480 10.013418 12.320450 -49.630419 3.149162 -2.169884 29.923557 1.411700 9.248701 1.076912 1.197000 0.000000 -53.561300 9.364086 -2.103080 5.486723 0.976523 -2.284519 -1.990715 -7.321336 -2.374577 -0.396912 9.356399 4.235561 4.183987 -4.583805 -0.391292 2.857761 0.000000 0.000000 0.000000 -6.028098 -6.925559 0.074158 -69.770700 -24.012368 20.691166 -0.848115 -75.900970 -0.042767 7.282747 -4.663866 -0.334736 -0.187541 0.493349 -0.000000 0.000000 0.000000 0.000000 0.000000 0.000000 0.000000 18.568155 0.223151 2.356456 44.603966 3.992340 -21.752516 3.528353 2.570269 0.006700 -5.192152 6.356030 -0.300728 0.139319 -0.098601 0.000000 0.000000 0.000000 0.000000 0.000000 0.000000 0.000000 
0.685884 16.372542 -0.513633 -132.724933 79.068577 -106.695501 -13.934562 1.053693 -2.879604 -5.535605 1.640028 -10.735138 -0.063509 2.050058 39.057716 0.968265 4.929956 0.719918 0.549500 0.000000 -58.094600 5.439935 -0.756493 0.917219 10.633680 12.524462 -49.366410 3.087442 -2.271233 31.511235 1.240159 8.385742 -0.404195 0.888599 0.000000 -53.019301 9.778299 -2.199947 5.788565 1.048813 -2.365207 -1.947943 -7.372933 -2.463701 -0.432215 9.862281 4.536952 4.322655 -4.574847 -0.389963 2.891824 0.000000 0.000000 0.000000 -6.212220 -7.077493 0.080817 -70.022017 -23.413036 19.651025 -0.914831 -74.508146 -0.047097 8.029616 -4.720847 -0.371910 -0.190455 0.480810 -0.000000 0.000000 0.000000 0.000000 0.000000 0.000000 0.000000 19.001092 0.291777 2.298679 44.534320 4.704823 -22.400590 3.468409 2.195028 0.005783 -5.706930 6.416861 -0.332737 0.137192 -0.097936 0.000000 0.000000 0.000000 0.000000 0.000000 0.000000 0.000000 
0.852762 16.367202 -0.550128 -133.870125 78.434234 -107.908986 -14.169558 0.951852 -3.054610 -4.988997 2.519170 -11.910273 0.102374 2.216863 41.659043 1.188222 6.497721 1.325559 0.794200 0.000000 -53.636400 5.313455 -0.844852 0.837928 11.175027 12.667946 -48.966283 3.045046 -2.326876 32.722526 1.053163 7.480245 -1.892064 0.619500 -0.000000 -52.800300 10.119484 -2.300939 6.066271 1.106094 -2.449265 -1.902868 -7.424775 -2.555731 -0.442560 10.414941 4.801800 4.451251 -4.556210 -0.388153 2.922901 0.000000 0.000000 0.000000 -6.333761 -7.206159 0.085129 -70.331630 -22.871034 18.649554 -0.988155 -72.810578 -0.051528 8.856361 -4.686839 -0.406002 -0.193425 0.464754 -0.000000 0.000000 0.000000 0.000000 0.000000 0.000000 0.000000 19.434588 0.332113 2.226043 44.627892 5.464722 -23.030865 3.400233 1.938869 0.004801 -6.258310 6.476521 -0.367345 0.134558 -0.096844 0.000000 0.000000 0.000000 0.000000 0.000000 0.000000 0.000000 
1.016970 16.370021 -0.584752 -135.387507 77.805066 -109.452518 -14.371714 0.835459 -3.217362 -4.547156 3.335433 -13.211777 0.252672 2.378887 44.269409 1.451593 8.395505 1.685581 1.100600 0.000000 -47.430400 5.205308 -0.918398 0.774099 11.621499 12.741379 -48.459798 3.016643 -2.343792 33.580089 0.859740 6.575911 -3.283816 0.404800 0.000000 -52.798200 10.382811 -2.400697 6.310180 1.148190 -2.533097 -1.856404 -7.473013 -2.646777 -0.425282 10.993838 5.017292 4.562111 -4.527134 -0.385845 2.948979 0.000000 0.000000 0.000000 -6.408579 -7.305952 0.089753 -70.679914 -22.401287 17.696363 -1.064594 -70.820692 -0.055787 9.738008 -4.560074 -0.433410 -0.196051 0.445631 -0.000000 0.000000 0.000000 0.000000 0.000000 0.000000 0.000000 19.845267 0.339548 2.139941 44.894116 6.290628 -23.727063 3.323198 1.751253 0.003883 -6.814590 6.589176 -0.406051 0.131329 -0.095757 0.000000 0.000000 0.000000 0.000000 0.000000 0.000000 0.000000 
